<svg height="500" viewBox="0 0 500 500" width="500" xmlns="http://www.w3.org/2000/svg"><path d="m209.028994 366.511682c12.407453 4.357921 25.711765 6.784492 39.5773 6.93856v14.526406c-15.609732-.154068-30.581208-2.921789-44.534779-7.835456zm81.897994.004402 4.957479 13.624008c-13.95357 4.919169-28.925047 7.68689-44.534778 7.835455v-14.526406c13.865535-.154068 27.169846-2.580638 39.577299-6.933057zm37.384124-21.026973 9.303455 11.086322 1.114342-.893444.550831-.458535-1.645156 1.381109-.02125-.026423c-11.614654 9.562456-24.813734 17.243272-39.151638 22.618836l-4.957479-13.613003c12.737585-4.792614 24.47377-11.615623 34.806895-20.094862zm-156.66294 0c10.327623 8.479239 22.063808 15.302248 34.801393 20.094862l-4.951977 13.613003c-14.338724-5.375871-27.543996-13.057258-39.15363-22.614973zm214.461863-118.101883c1.210483 7.362247 1.870747 14.911576 1.870747 22.614973s-.660264 15.252726-1.870747 22.614973l-14.305711-2.525614c1.072929-6.542385 1.650659-13.24434 1.650659-20.089359s-.57773-13.552477-1.650659-20.089359zm-272.262987 0 14.305711 2.525614c-1.072929 6.536882-1.650659 13.24434-1.650659 20.089359s.57773 13.552477 1.650659 20.089359l-14.305711 2.525614c-1.210483-7.362247-1.870747-14.911576-1.870747-22.614973 0-7.7089.660264-15.252726 1.870747-22.614973zm256.311569-45.190879c7.345433 12.996731 12.660554 27.297538 15.472177 42.49524l-14.305711 2.520111c-2.514504-13.49195-7.21338-26.208057-13.722478-37.768656zm-30.429347-37.02748c11.488586 9.843842 21.326513 21.553005 29.068104 34.648781l.009904-.005503.236594.412682c-.07703-.137561-.165066-.269619-.247599-.407179l-12.560414 7.252198c-6.894252-11.626628-15.648246-22.009706-25.843816-30.76957zm-137.722729-24.574937-.509503.202489 4.957479 13.624008c-12.737585 4.792614-24.479272 11.615623-34.806895 20.094862l-9.304215-11.087389c11.615137-9.563218 24.809404-17.250108 39.153631-22.631481l-.002201.001101-.005502-.016508zm95.953905.002751.506202.187083-.004149.013232c14.343064 5.381319 27.5363 13.067804 39.150626 22.630353l-.00055.000551.022009-.027512 1.672667 1.403118c-.555721-.467706-1.133452-.913402-1.694676-1.375606l.00055-.000551-9.304214 11.08739c-10.327623-8.479239-22.06931-15.302248-34.806895-20.094862l4.956073-13.62079c-.169419-.0657-.328094-.136772-.497643-.202406zm-49.351401-8.566728v14.526406c-13.865535.148566-27.175349 2.580638-39.5773 6.933058l-4.962981-13.624008c13.953571-4.91917 28.925047-7.68689 44.540281-7.835456zm2.740644-.002751c15.609731.154068 30.581208 2.921789 44.534778 7.835455l-4.957479 13.624009c-12.407453-4.35242-25.711764-6.77899-39.577299-6.933058zm104.88617 200.9079 12.561515 7.252199c-7.747093 13.095775-17.579518 24.804939-29.068104 34.64878l-9.337227-11.131409c10.19557-8.759863 18.949564-19.142942 25.843816-30.76957zm15.089224-40.144603 14.305711 2.520111c-2.811623 15.197702-8.126744 29.498509-15.472177 42.500743l-12.556012-7.252198c6.509098-11.560599 11.207974-24.276706 13.722478-37.768656zm-121.346542 115.220262h.022009-.044017zm31.06045 1.658431-30.421645 110.334658-31.66514-110.329155 1.497566.325524c1.99963.423466 4.011233.804674 6.040443 1.143623l.044017.005503c2.387954.401677 4.803418.731823 7.229887 1.006944.192577.02201.385153.055024.583232.077034 2.217386.247609 4.45678.418184 6.701676.561247.385154.027513.770307.06603 1.155461.088039 2.575028.143063 5.166563.220097 7.774604.220097 2.613543 0 5.205078-.077034 7.780105-.220097l1.166466-.088039c2.244896-.143063 4.48429-.31914 6.696173-.561247.203582-.02201.401661-.055024.605242-.077034 2.426468-.280624 4.836431-.610769 7.224384-1.012447.011004 0 .027511-.005502.038515-.005502 2.536513-.423687 5.056519-.913403 7.549014-1.469148zm65.884009-34.523194-1.336092 60.752711-54.323186-28.893242c7.7636-2.344033 15.241085-5.337353 22.382936-8.897423.291616-.148566.583233-.302634.869347-.445697 2.024808-1.028954 4.022105-2.101927 5.991892-3.224422.379651-.214595.759303-.434692 1.133452-.654789 1.925769-1.116992 3.818525-2.272502 5.678267-3.477533.32463-.209092.649259-.40718.968387-.621774 2.074328-1.3591 4.121145-2.773223 6.118442-4.236869l.181573-.126556c4.297215-3.163895 8.41836-6.564395 12.335924-10.173986zm-193.56523.301402 1.052437.956472c3.524755 3.170076 7.214864 6.158666 11.041391 8.969906.330132.242107.665766.473209 1.0014.709813 1.744196 1.260056 3.515904 2.487097 5.320624 3.670118.440176.286127.880351.56675 1.326029.847374 1.771708 1.1335 3.565424 2.228483 5.386651 3.284949.412664.236604.830831.478711 1.248998.715315 1.986293 1.122495 4.000097 2.206473 6.046914 3.235427.236595.121053.473189.242107.709784.36316 7.152855 3.554568 14.641344 6.531381 22.410446 8.864409l-54.213142 28.832716zm-9.637647-42.512848c6.894252 11.626627 15.648247 22.009706 25.843817 30.76957l-9.337227 11.131408c-11.488587-9.843841-21.321012-21.553004-29.068104-34.64878l.000391.001248-.009195.004805-.258603-.451199c.088035.154068.181572.297131.269607.445697l-.001809-.002303zm243.540972-22.625428 29.436751 54.639096-61.49805 1.914845.986299-1.081142c3.268991-3.620977 6.351129-7.413104 9.242284-11.359845.110044-.148565.214586-.302633.32463-.456701 1.430571-1.964367 2.80612-3.96725 4.137651-6.00865.187075-.291629.37415-.583257.561224-.874886 1.27651-1.986376 2.5035-4.011269 3.68097-6.063674.137555-.236604.27511-.473209.412665-.709813 5.315121-9.398145 9.612337-19.445576 12.715576-29.99923zm-274.454513.38572c2.35494 7.917992 5.375646 15.549858 8.996092 22.829568.033013.077034.07703.148566.115546.2256 1.116946 2.24499 2.299918 4.451463 3.537912 6.624921.165066.297131.335634.594262.506202.891393 1.149959 1.986376 2.343936 3.94524 3.58193 5.87109.203581.31914.40166.632779.605242.946417 1.320527 2.019391 2.685072 4.000264 4.099136 5.942621.110044.154068.214586.308136.330132.462203 3.163763 4.308401 6.558618 8.440723 10.168059 12.363953l-.000833-.000612-61.1670853-1.903228zm15.824868-17.903795c2.514503 13.49195 7.213379 26.208058 13.722478 37.768656l-12.556013 7.246696c-7.33993-12.996732-12.660554-27.297539-15.472176-42.495241zm260.94662-54.142227 110.423581 30.444926-110.286027 31.65546.311149-1.450319c.911164-4.358813 1.621773-8.788046 2.131827-13.279677.022008-.165072.049519-.330145.066026-.495218.242097-2.217478.418167-4.456965.555722-6.701955.022009-.368663.066026-.726321.082533-1.094983.143057-2.558629.220088-5.133764.220088-7.725407 0-2.63016-.082533-5.23831-.22559-7.829953-.022009-.418185-.071529-.825364-.093538-1.238046-.143057-2.24499-.324629-4.478975-.572228-6.690951-.022009-.236604-.060524-.467706-.088035-.698808-.280612-2.421068-.616246-4.831131-1.017907-7.219184-.005502-.033014-.011004-.071531-.022008-.104546-.429172-2.547623-.924369-5.073237-1.485593-7.571339zm-279.193004-.005502c-.561224 2.498101-1.061924 5.023715-1.491096 7.571339-.005502.033014-.011004.071531-.016506.104546-.407163 2.393555-.737294 4.809121-1.023409 7.241193-.027511.2256-.060524.445697-.088035.671296-.247599 2.211976-.423669 4.451463-.566726 6.690951-.027511.418184-.071529.830866-.09904 1.249051-.143057 2.591643-.220087 5.199793-.220087 7.829953 0 2.591643.071528 5.161276.214585 7.719904.016507.374165.060524.742828.082533 1.11149.143057 2.239488.313625 4.462468.555722 6.668941.016507.176078.04952.346653.066026.522731.566727 4.974194 1.375549 9.882358 2.437473 14.691479l-110.236506-30.389902zm19.41395-36.449725 12.556012 7.252199c-6.514601 11.560598-11.207974 24.271203-13.722478 37.768656l-14.305711-2.525614c2.811623-15.1922 8.126744-29.493007 15.472177-42.495241zm15.445766-29.608007-.066027.110049-.96388 1.048572c-5.113134 5.617551-9.784175 11.636786-13.958076 18.011833-.093538.143064-.181573.286127-.27511.423687-1.348038 2.074415-2.641055 4.181844-3.884551 6.327791-.137555.236604-.27511.473209-.407163.709813-1.237994 2.162453-2.420966 4.357922-3.548916 6.591907-.066027.132058-.137555.264116-.203582.401677-3.647956 7.290715-6.69067 14.933586-9.062117 22.868085h-.005502l-.066027.115551-29.4532575-54.677613zm209.433956.004952 61.789666 1.92585-29.387231 54.545554-.402411-1.321541c-2.315691-7.473324-5.231227-14.683795-8.681716-21.58506-.071528-.137561-.143057-.269619-.214585-.40718-1.127951-2.239488-2.316425-4.445961-3.559921-6.613917-.126551-.225599-.258604-.451199-.385154-.671296-1.265505-2.178961-2.58053-4.324907-3.956079-6.432336-.066027-.104547-.132053-.209093-.203582-.313639-4.456779-6.795497-9.474782-13.194819-14.993485-19.120932zm-194.449825-7.422773 9.337228 11.131409c-10.201072 8.759863-18.949565 19.142942-25.843817 30.769569l-12.561515-7.252198c7.741591-13.095775 17.574016-24.799436 29.068104-34.64878zm-5.775655-61.5991152 54.906418 29.2013782-.121048.071531c-.005502 0-.005502 0-.005502 0l-1.313282.397694c-7.426804 2.288135-14.595402 5.162509-21.454807 8.576764-.093537.044019-.187075.099044-.286114.143063-2.211883 1.105988-4.390753 2.278005-6.542112 3.494041-.319127.18158-.632753.36316-.95188.550242-1.958782 1.127998-3.884551 2.300015-5.782808 3.521553-.341137.220098-.687775.434692-1.028911.660292-1.969787 1.287567-3.90656 2.624657-5.81032 4.005766-.192577.137561-.385153.269619-.572228.40718-4.291713 3.147388-8.407356 6.53138-12.319418 10.129967l-.060524.033015zm190.90861-.002201 1.342536 61.0769352c-.005502 0-.005502 0-.011004-.005503-3.895555-3.582079-8.000194-6.944062-12.280903-10.080445-.253101-.187083-.511704-.36316-.770307-.54474-1.85424-1.342592-3.735991-2.641165-5.656258-3.890216-.357643-.236604-.720788-.467706-1.083933-.698808-1.90376-1.216036-3.840533-2.393556-5.810319-3.527056-.297119-.170575-.588735-.34115-.880352-.506223-9.326223-5.271324-19.285198-9.535705-29.750376-12.628069zm-96.022132-83.5664528 31.665141 110.323653-1.494837-.322839c-1.996637-.420649-4.007359-.801857-6.032168-1.140807-.016506-.005502-.038515-.005502-.055022-.011005-2.382451-.396174-4.792413-.72632-7.213379-1.006944-.198079-.022009-.396158-.055024-.59974-.077034-2.20638-.242106-4.43477-.418184-6.674164-.561247-.396158-.02201-.786814-.066029-1.182972-.088039-2.575028-.143063-5.166563-.220097-7.774604-.220097s-5.205078.077034-7.780106.220097c-.390656.02201-.770307.066029-1.160963.088039-2.244896.143063-4.48429.319141-6.701675.56675-.198079.02201-.396159.049522-.588735.071531-2.431971.280624-4.841933.61077-7.235389 1.012447-.016506 0-.033013.005502-.044017.005502-2.536513.42919-5.051017.918906-7.543512 1.469148z" fill="#e6e6e6"/></svg>